<?xml version="1.0" encoding="utf-8"?>
<!-- Generator: Adobe Illustrator 17.1.0, SVG Export Plug-In . SVG Version: 6.00 Build 0)  -->
<!DOCTYPE svg PUBLIC "-//W3C//DTD SVG 1.1//EN" "http://www.w3.org/Graphics/SVG/1.1/DTD/svg11.dtd">
<svg version="1.1" id="Layer_1" xmlns="http://www.w3.org/2000/svg" xmlns:xlink="http://www.w3.org/1999/xlink" x="0px" y="0px"
	 viewBox="0 0 145 63" enable-background="new 0 0 145 63" xml:space="preserve">
<g>
	<g>
		<path d="M-0.1,40.1V12.2h8.9c8.6,0,13.9,5.3,13.9,14s-5.3,14-13.9,14H-0.1z M8.5,37.7c7.3,0,11.6-4.3,11.6-11.6
			c0-7.2-4.3-11.6-11.6-11.6H2.4v23.2H8.5z"/>
		<path d="M31.1,40.6c-3.4,0-7-1.9-7-6c0-7.1,9-7.1,12.4-7.1h0.9v-0.2c0-3.6-1.6-5.3-4.9-5.3c-3.2,0-5.2,1.7-5.3,1.8L26.9,24l-1.4-2
			l0.3-0.2c0.1-0.1,2.5-2.2,6.8-2.2c4.8,0,7.3,2.7,7.3,7.7v12.9h-2.5v-2.9c-0.2,0.3-0.4,0.6-0.7,0.9C35.6,39.2,33.8,40.6,31.1,40.6z
			 M36.5,29.8c-3.2,0-9.9,0-9.9,4.6c0,1.9,1.6,3.8,4.5,3.8c3.8,0,6.2-4,6.2-7.8v-0.6H36.5z"/>
		<path d="M50.8,40.3c-2,0-6.6-0.7-6.6-7.6V22.4h-2.6v-2.3h2.6v-5.5h2.5v5.5h5.1v2.3h-5.1v10.2c0,4.7,2.6,5.3,4.2,5.3
			c0.5,0,0.8-0.1,0.8-0.1l0.5-0.1v2.4l-0.3,0.1C51.7,40.2,51.4,40.3,50.8,40.3z"/>
		<path d="M62.6,40.6c-5.9,0-10.4-4.7-10.4-10.7c0-5.9,4.6-10.4,10.4-10.4s10.4,4.6,10.4,10.4C73.1,35.9,68.5,40.6,62.6,40.6z
			 M62.6,21.9c-4.4,0-7.9,3.5-7.9,8c0,4.6,3.5,8.2,7.9,8.2s7.9-3.6,7.9-8.2C70.5,25.4,67.1,21.9,62.6,21.9z"/>
	</g>
	<path fill="#B0007F" d="M143.8,0.6c-3.2,1.1-6.2,5.1-9.6,6.8c-3.2,1.6-6.5,2.5-8.8,2.9c-2.9,0.6-4,0.6-5.5,0.9
		c-1.9,0.4-6.6,1.8-10.2,4c-1.9,1.1-4.7,2.4-7,2.8c-0.2,0-0.4,0.1-0.6,0.1c-2.1,0-3.9-0.4-5.9-1.8c-0.2-0.1-0.3-0.3-0.5-0.4
		c-0.9-0.7-1.5-1.2-2.4-1.7c-0.2-0.1-0.3-0.2-0.5-0.3c-0.9-0.7-1.7-1.6-3.2-2.4c-2.9-1.4-6.2-1.6-6.8-1c-0.7,0.7-0.9,0.6-2,0.9
		c-0.8,0.2-3.9-0.8-4.7-1C75.4,10.1,75,10.5,75,11c-0.1,0.5-1.1,2.2-0.3,4c0.9,1.8,2,2.2,2.8,2.4c1,0.3,2,1.2,2.1,1.3
		c1,0.9,1.4,0.9,2.2,1.1c0.3,0.1,1.1,0.6,1.3,0.8c1.8,1.3,2.6,2.8,4.2,5.5c0,0,3.3,2.9,0.4,7.6c-0.2,0.3-0.6,1.8-3.6,4
		c-3,2.1-8.4,6.4-9.2,6.7c-0.8,0.4-2.1,0.3-2.8,0.5c-0.7,0.1-0.7,0.2-1.1,1c-0.4,0.8,0.5,0.7,0.8,0.8c0.3,0,1.9,0.2,3-0.1
		c1.1-0.3,2.6-1,3.5-1.3c1.1-0.3,4.2-2.9,4.8-3.1c0.6-0.3,6.4-2.4,7.1-3.4c0.9-1.3,2.8-2.9,5.4-2.8c3.4,0.1-0.2,3.4-0.5,3.8
		c-0.6,0.8-5.8,4.8-6.7,5.5c-0.9,0.8-1.9,1.3-2.5,1.3c-0.6,0-1.3,0.1-1.9,0.8c-0.6,0.7-0.3,1-0.3,1.4c0,0.3,3-0.1,3.8-0.1
		c0.4,0,0.8-0.3,1-0.6c0-0.2,0.2-0.4,0.5-0.6c1.2-0.5,2.2-1.4,3.4-2c1-0.5,2.2-1,3.2-1.7c1.1-0.9,2.5-1.1,3.5-2.1
		c3.2-2.8,3.6-2.3,3.6-3.6c0-1.8,10.4-9.6,13.2-7.6c0.6,0.4,0.9,1.3,1.2,1.8c0-0.1,0.5,1.5,0.4,2.2c-0.7,5-2.9,5.9-3.6,6.5
		c-0.7,0.6-1.4,0-2.1,0.3c-0.6,0.3-0.8,1-1.2,1.6c-0.4,0.6,2.1,0.8,2.8,0.8c0.7,0,1.5-0.5,2-1.1c0.5-0.7,4.9-5.8,5.6-6.7
		c0.7-0.9,0.2-2.7,0.2-3.5c0.1-0.8,2.1-4.5,2.7-5c0.5-0.5,1.6,1,2.2,1.2c0.6,0.2,3.1,1.4,4.6,2.7c1.4,1.4,3.9,2.1,5.1,3.2
		c1.2,1.1,2.4,4.9,2.6,6.2c0.2,1.4-0.7,1.1-0.9,1.7c-0.2,0.5-0.4,1.1-0.4,1.5c0,0.4,1.2,0.4,2,0.5c0.7,0,1.9,0.1,2.4-0.5
		c0.5-0.6-1-4.6-1.2-5.3c-0.2-0.8-0.5-4-0.5-4.6c-0.1-0.7-1.8-1.4-2.3-1.8c-3.6-3.5-4.3-8.3-4.6-10.7c-0.3-2.2-1.2-5.9-4-8
		c-0.2-0.2-0.4-0.5,0.1-0.6c3.1-0.6,6.3-1.7,9.1-4.4c2.2-2.1,3.2-4.8,5.8-7.3C144.4,0.8,144.2,0.4,143.8,0.6z"/>
</g>
<g>
	<path fill="#423B3B" d="M37.2,50.3c2,0,3.1,1.2,3.1,1.2l-0.5,0.7c0,0-1-1-2.6-1c-2,0-3.4,1.7-3.4,3.8c0,2.2,1.4,4,3.5,4
		c1.7,0,2.8-1.2,2.8-1.2l0.5,0.6c0,0-1.2,1.4-3.3,1.4c-2.5,0-4.3-2.1-4.3-4.8C32.9,52.3,34.8,50.3,37.2,50.3z"/>
	<path fill="#423B3B" d="M42,53.1h0.8v1.2c0,0.3,0,0.5,0,0.5h0c0.3-1,1-1.8,1.9-1.8c0.2,0,0.3,0,0.3,0v0.9c0,0-0.1,0-0.3,0
		c-0.9,0-1.5,0.7-1.8,1.7c-0.1,0.4-0.2,0.9-0.2,1.3v2.8H42V53.1z"/>
	<path fill="#423B3B" d="M48.9,52.9c1.7,0,2.6,1.4,2.6,3c0,0.2,0,0.5,0,0.5h-4.7c0,1.7,1.1,2.6,2.4,2.6c1.1,0,1.9-0.8,1.9-0.8
		l0.4,0.7c0,0-0.9,0.9-2.3,0.9c-1.8,0-3.2-1.4-3.2-3.4C45.9,54.2,47.2,52.9,48.9,52.9z M50.6,55.7c0-1.4-0.8-2-1.7-2
		c-1,0-1.9,0.7-2.1,2H50.6z"/>
	<path fill="#423B3B" d="M56.1,55.6h0.3v-0.2c0-1.3-0.6-1.7-1.5-1.7c-1,0-1.7,0.6-1.7,0.6l-0.4-0.7c0,0,0.8-0.7,2.2-0.7
		c1.5,0,2.3,0.9,2.3,2.5v4.2h-0.8v-0.7c0-0.3,0-0.5,0-0.5h0c0,0-0.5,1.4-2,1.4c-1,0-2.1-0.6-2.1-1.9C52.4,55.6,55.1,55.6,56.1,55.6z
		 M54.6,59.1c1.2,0,1.9-1.3,1.9-2.4v-0.3h-0.4c-1,0-2.9,0-2.9,1.5C53.2,58.4,53.7,59.1,54.6,59.1z"/>
	<path fill="#423B3B" d="M59.5,53.9h-0.8v-0.7h0.8v-1.9h0.8v1.9h1.5v0.7h-1.5v3.3c0,1.5,0.9,1.7,1.4,1.7c0.2,0,0.3,0,0.3,0v0.8
		c0,0-0.1,0-0.4,0c-0.7,0-2.1-0.2-2.1-2.4V53.9z"/>
	<path fill="#423B3B" d="M65.8,52.9c1.7,0,2.6,1.4,2.6,3c0,0.2,0,0.5,0,0.5h-4.7c0,1.7,1.1,2.6,2.4,2.6c1.1,0,1.9-0.8,1.9-0.8
		l0.4,0.7c0,0-0.9,0.9-2.3,0.9c-1.8,0-3.2-1.4-3.2-3.4C62.8,54.2,64.1,52.9,65.8,52.9z M67.5,55.7c0-1.4-0.8-2-1.7-2
		c-1,0-1.9,0.7-2.1,2H67.5z"/>
	<path fill="#423B3B" d="M74.1,50.5H75v9.2h-0.8V50.5z"/>
	<path fill="#423B3B" d="M77.3,53.1h0.8v1c0,0.3,0,0.5,0,0.5h0c0.2-0.6,1-1.7,2.4-1.7c1.5,0,2,0.9,2,2.5v4.2h-0.8v-3.9
		c0-1-0.1-1.9-1.3-1.9c-1,0-1.9,0.8-2.2,1.9c-0.1,0.3-0.1,0.6-0.1,0.9v3.1h-0.8V53.1z"/>
	<path fill="#423B3B" d="M84.8,53.9H84v-0.7h0.8v-1.9h0.8v1.9h1.5v0.7h-1.5v3.3c0,1.5,0.9,1.7,1.4,1.7c0.2,0,0.3,0,0.3,0v0.8
		c0,0-0.1,0-0.4,0c-0.7,0-2.1-0.2-2.1-2.4V53.9z"/>
	<path fill="#423B3B" d="M91.4,52.9c1.7,0,2.6,1.4,2.6,3c0,0.2,0,0.5,0,0.5h-4.7c0,1.7,1.1,2.6,2.4,2.6c1.1,0,1.9-0.8,1.9-0.8
		l0.4,0.7c0,0-0.9,0.9-2.3,0.9c-1.8,0-3.2-1.4-3.2-3.4C88.3,54.2,89.7,52.9,91.4,52.9z M93.1,55.7c0-1.4-0.8-2-1.7-2
		c-1,0-1.9,0.7-2.1,2H93.1z"/>
	<path fill="#423B3B" d="M95.8,50.5h0.8v7.4c0,0.9,0.4,1,0.7,1c0.1,0,0.2,0,0.2,0v0.8c0,0-0.1,0-0.3,0c-0.5,0-1.4-0.2-1.4-1.6V50.5z
		"/>
	<path fill="#423B3B" d="M99.1,50.5h0.8v7.4c0,0.9,0.4,1,0.7,1c0.1,0,0.2,0,0.2,0v0.8c0,0-0.1,0-0.3,0c-0.5,0-1.4-0.2-1.4-1.6V50.5z
		"/>
	<path fill="#423B3B" d="M102.5,50.5h0.9v1.1h-0.9V50.5z M102.5,53.1h0.8v6.6h-0.8V53.1z"/>
	<path fill="#423B3B" d="M107.8,61.6c1.2,0,2.1-0.6,2.1-2.1v-0.6c0-0.2,0-0.5,0-0.5h0c-0.4,0.7-1,1.2-1.9,1.2
		c-1.6,0-2.7-1.4-2.7-3.4c0-2,1-3.3,2.7-3.3c1.6,0,2,1.1,2,1.1h0c0,0,0-0.1,0-0.2v-0.7h0.8v6.4c0,2.1-1.4,2.9-2.9,2.9
		c-0.7,0-1.4-0.2-2-0.5l0.3-0.7C106.1,61.1,106.9,61.6,107.8,61.6z M109.9,56.2c0-1.9-0.9-2.5-1.9-2.5c-1.2,0-1.9,0.9-1.9,2.5
		c0,1.6,0.8,2.6,2,2.6C109.1,58.8,109.9,58.2,109.9,56.2z"/>
	<path fill="#423B3B" d="M115.4,52.9c1.7,0,2.6,1.4,2.6,3c0,0.2,0,0.5,0,0.5h-4.7c0,1.7,1.1,2.6,2.4,2.6c1.1,0,1.9-0.8,1.9-0.8
		l0.4,0.7c0,0-0.9,0.9-2.3,0.9c-1.8,0-3.2-1.4-3.2-3.4C112.4,54.2,113.8,52.9,115.4,52.9z M117.2,55.7c0-1.4-0.8-2-1.7-2
		c-1,0-1.9,0.7-2.1,2H117.2z"/>
	<path fill="#423B3B" d="M119.7,53.1h0.8v1c0,0.3,0,0.5,0,0.5h0c0.2-0.6,1-1.7,2.4-1.7c1.5,0,2,0.9,2,2.5v4.2h-0.8v-3.9
		c0-1-0.1-1.9-1.3-1.9c-1,0-1.9,0.8-2.2,1.9c-0.1,0.3-0.1,0.6-0.1,0.9v3.1h-0.8V53.1z"/>
	<path fill="#423B3B" d="M129.5,52.9c1.5,0,2.2,0.9,2.2,0.9l-0.4,0.7c0,0-0.7-0.8-1.8-0.8c-1.3,0-2.4,1.1-2.4,2.6
		c0,1.5,1.1,2.6,2.4,2.6c1.2,0,2-0.9,2-0.9l0.4,0.7c0,0-0.8,1-2.4,1c-1.8,0-3.2-1.4-3.2-3.4C126.3,54.3,127.7,52.9,129.5,52.9z"/>
	<path fill="#423B3B" d="M135.9,52.9c1.7,0,2.6,1.4,2.6,3c0,0.2,0,0.5,0,0.5h-4.7c0,1.7,1.1,2.6,2.4,2.6c1.1,0,1.9-0.8,1.9-0.8
		l0.4,0.7c0,0-0.9,0.9-2.3,0.9c-1.8,0-3.2-1.4-3.2-3.4C132.8,54.2,134.2,52.9,135.9,52.9z M137.6,55.7c0-1.4-0.8-2-1.7-2
		c-1,0-1.9,0.7-2.1,2H137.6z"/>
	<path fill="#423B3B" d="M140.2,52.2h-1.1v-0.3h2.4v0.3h-1.1v2.9h-0.3V52.2z"/>
	<path fill="#423B3B" d="M142.2,51.9h0.3l0.8,1.9c0.1,0.2,0.1,0.4,0.1,0.4h0c0,0,0.1-0.2,0.1-0.4l0.8-1.9h0.3l0.2,3.2h-0.3l-0.2-2.2
		c0-0.2,0-0.4,0-0.4h0c0,0-0.1,0.3-0.2,0.4l-0.7,1.6h-0.3l-0.7-1.6c-0.1-0.2-0.2-0.5-0.2-0.5h0c0,0,0,0.3,0,0.5l-0.2,2.2H142
		L142.2,51.9z"/>
</g>
</svg>
